<svg xmlns="http://www.w3.org/2000/svg" viewBox="0 0 1024 1024" version="1.1">
	<path d="M 0 512.001 L 0 1024.002 512.250 1023.751 L 1024.500 1023.500 1024.751 511.750 L 1025.002 0 512.501 0 L 0 0 0 512.001 M 0.496 512.500 C 0.496 794.100, 0.610 909.151, 0.750 768.168 C 0.890 627.186, 0.890 396.786, 0.750 256.168 C 0.610 115.551, 0.496 230.900, 0.496 512.500 M 230.091 377.446 L 230.147 465.159 269.824 464.726 C 314.641 464.238, 316.750 463.964, 332.522 456.572 C 361.507 442.986, 379.297 417.939, 381.937 387 C 385.158 349.244, 367.994 317.105, 336.004 300.995 C 318.083 291.969, 311.842 290.999, 267.267 290.310 L 230.035 289.734 230.091 377.446 M 403 377.480 L 403 465 425.140 465 L 447.279 465 446.586 377.750 L 445.892 290.500 424.446 290.230 L 403 289.961 403 377.480 M 465 290.318 C 465 290.543, 469.751 303.276, 475.558 318.613 C 481.365 333.951, 487.836 351.225, 489.937 357 C 492.039 362.775, 495.424 371.746, 497.460 376.935 C 499.496 382.124, 502.737 390.674, 504.662 395.935 C 508.304 405.884, 510.683 412.251, 513.715 420.156 C 514.697 422.716, 518.871 433.854, 522.991 444.906 L 530.482 465 553.653 465 L 576.825 465 579.549 457.750 C 581.047 453.762, 585.086 443.075, 588.524 434 C 606.994 385.246, 612.519 370.713, 615.516 363 C 617.332 358.325, 622.863 343.700, 627.807 330.500 C 632.751 317.300, 638.192 303.001, 639.898 298.724 C 641.604 294.447, 643 290.735, 643 290.474 C 643 290.213, 632.466 290, 619.590 290 L 596.181 290 593.653 297.250 C 583.883 325.278, 563.739 381.230, 556.661 400 C 555.312 403.575, 553.843 406.421, 553.395 406.325 C 552.509 406.134, 535.191 358.488, 515.658 302.500 L 511.471 290.500 488.236 290.205 C 475.456 290.042, 465 290.093, 465 290.318 M 662 377.500 L 662 465 726 465 L 790 465 790 445.011 L 790 425.022 747.750 424.761 L 705.500 424.500 705.221 411.250 L 704.942 398 742.971 398 L 781 398 781 378.012 L 781 358.024 743.250 357.762 L 705.500 357.500 705.500 344.166 L 705.500 330.832 747.250 330.920 L 789 331.008 789 310.504 L 789 290 725.500 290 L 662 290 662 377.500 M 274.482 330.852 C 274.217 331.117, 274 352.183, 274 377.667 C 274 414.021, 274.269 424.018, 275.250 424.085 C 281.696 424.522, 303.358 423.669, 306.500 422.854 C 321.347 419.004, 334.377 405.341, 337.939 389.888 C 339.660 382.425, 339.219 368.917, 337.025 361.855 C 332.342 346.786, 319.514 335.243, 304 332.138 C 298.315 331.001, 275.334 329.999, 274.482 330.852 M 230 504.250 L 230 516.500 511.750 516.500 L 793.500 516.500 793.781 504.250 L 794.062 492 512.031 492 L 230 492 230 504.250 M 230.500 632.500 L 230.500 721 252 721.001 L 273.500 721.001 273.168 692.251 C 272.985 676.438, 273.133 660.688, 273.497 657.250 L 274.159 651 300.080 651 L 326 651 326 686 L 326 721 347.811 721 L 369.621 721 369.561 632.501 L 369.500 544.003 347.750 544.001 L 326 544 326 577.017 L 326 610.033 299.750 609.767 L 273.500 609.500 273.500 576.750 L 273.500 543.999 252 544 L 230.500 544 230.500 632.500 M 387 632.500 L 387 721 408.500 721 L 430 721 430 693.500 L 430 666 439.799 666 L 449.598 666 456.955 679.750 C 461.002 687.313, 467.445 699.497, 471.274 706.826 C 475.102 714.156, 478.754 720.352, 479.389 720.596 C 480.024 720.839, 490.752 720.918, 503.229 720.769 L 525.915 720.500 518.832 708 C 514.937 701.125, 507.081 687.460, 501.375 677.633 C 495.669 667.806, 491.035 659.481, 491.077 659.133 C 491.119 658.785, 494.606 656.233, 498.827 653.463 C 508.066 647.397, 514.267 639.693, 519 628.397 C 522.003 621.230, 522.350 619.345, 522.757 608 C 523.289 593.138, 521.846 585.616, 516.378 574.757 C 511.827 565.718, 501.148 554.828, 492.270 550.172 C 481.352 544.445, 477.200 544.037, 429.750 544.017 L 387 544 387 632.500 M 534 564.075 L 534 584.150 563 583.909 C 578.951 583.776, 592.245 583.911, 592.543 584.209 C 593.046 584.713, 586.692 595.080, 566.007 627.500 C 561.445 634.650, 551.927 649.646, 544.856 660.823 L 532 681.147 532 701.073 L 532 721 587.891 721 L 643.781 721 643.846 701 L 643.910 681 612.955 681 C 594.255 681, 582 680.627, 582 680.058 C 582 678.885, 586.492 671.559, 617.901 621.500 L 643 581.500 643 562.750 L 643 544 588.500 544 L 534 544 534 564.075 M 658 632.500 L 658 721 679 721 L 700 721 700 674.278 C 700 628.747, 700.047 627.606, 701.853 629.528 C 702.872 630.612, 714.839 651.638, 728.445 676.250 L 753.184 721 773.092 721 L 793 721 793 632.500 L 793 544 772 544 L 751 544 751 591.714 C 751 631.860, 750.786 639.196, 749.648 637.964 C 748.269 636.470, 730.672 604.796, 709.529 565.750 L 697.751 544 677.876 544 L 658 544 658 632.500 M 430.750 583.568 C 430.337 583.989, 430 593.648, 430 605.032 L 430 625.731 444.250 626.431 C 460.188 627.215, 466.308 626.344, 472.230 622.450 C 484.546 614.353, 482.937 592.408, 469.500 585.201 C 466.258 583.462, 432.258 582.029, 430.750 583.568" stroke="none" fill="#000000" fill-rule="evenodd"/>
</svg>